<svg width="177" height="25" viewBox="0 0 177 25" fill="none" xmlns="http://www.w3.org/2000/svg">
<path d="M18.4058 10.4218C16.893 10.4218 15.8845 9.98759 14.939 9.05707L15.5063 8.49876C16.4518 9.42928 17.2082 9.67742 18.4689 9.67742C20.1078 9.67742 21.1163 8.87097 21.1163 7.56824C21.1163 6.94789 20.9272 6.45161 20.549 6.14144C20.1708 5.83126 19.9187 5.7072 19.0362 5.58313L17.8385 5.39702C17.0191 5.27295 16.4518 5.02481 16.0105 4.65261C15.4432 4.21836 15.1911 3.59801 15.1911 2.79156C15.1911 1.05459 16.3888 0 18.4058 0C19.6665 0 20.486 0.372208 21.4315 1.11663L20.9272 1.6129C20.2969 1.05459 19.6035 0.682382 18.4058 0.682382C16.893 0.682382 16.0105 1.48883 16.0105 2.79156C16.0105 3.34988 16.1996 3.84615 16.5779 4.15633C16.9561 4.4665 17.5234 4.71464 18.1537 4.77667L19.2883 4.96278C20.1708 5.08685 20.612 5.21092 21.0533 5.58313C21.6206 6.01737 21.9358 6.76179 21.9358 7.56824C21.9358 9.30521 20.612 10.4218 18.4058 10.4218Z" fill="#595A5C"/>
<path d="M28.7437 9.49151C28.2394 10.1119 27.546 10.422 26.6636 10.422C25.9071 10.422 25.2768 10.2359 24.7725 9.73965C24.2683 9.30541 24.0161 8.62303 24.0161 7.81658V3.41211H24.7725V7.69251C24.7725 9.05727 25.4659 9.73965 26.7266 9.73965C27.9873 9.73965 28.7437 8.99524 28.7437 7.69251V3.41211H29.5001V10.36H28.7437V9.49151Z" fill="#595A5C"/>
<path d="M34.3536 10.4221C33.156 10.4221 32.2105 10.1119 31.5171 9.42952L32.0214 8.93325C32.5887 9.49156 33.3451 9.80173 34.3536 9.80173C35.7404 9.80173 36.4968 9.30545 36.4968 8.37493C36.4968 7.63052 36.1186 7.32034 35.1731 7.19627L33.9754 7.0722C32.5887 6.94813 31.8323 6.32779 31.8323 5.2732C31.8323 4.09454 32.8408 3.28809 34.3536 3.28809C35.3622 3.28809 36.1816 3.53622 36.812 4.0325L36.3077 4.52878C35.7404 4.15657 35.11 3.97047 34.3536 3.97047C33.156 3.97047 32.5256 4.46675 32.5256 5.33523C32.5256 6.07965 32.9669 6.38982 33.9754 6.51389L35.11 6.63796C36.3077 6.76203 37.1902 7.0722 37.1902 8.43697C37.1902 9.61563 36.1186 10.4221 34.3536 10.4221Z" fill="#595A5C"/>
<path d="M39.6486 8.49881V3.97027H38.7031V3.41196H39.6486V1.17871H40.405V3.41196H41.9809V3.97027H40.405V8.56085C40.405 9.30526 40.7202 9.73951 41.4766 9.73951H41.9809V10.3599H41.3506C40.279 10.3599 39.6486 9.5534 39.6486 8.49881Z" fill="#595A5C"/>
<path d="M48.3472 9.67715C47.7169 10.2975 47.2126 10.4836 46.204 10.4836C45.1325 10.4836 44.5651 10.2975 44.1239 9.86326C43.8087 9.55308 43.6196 9.0568 43.6196 8.49849C43.6196 7.2578 44.5651 6.51338 46.078 6.51338H48.3472V5.64489C48.3472 4.52827 47.7799 3.96996 46.3301 3.96996C45.3216 3.96996 44.8173 4.2181 44.376 4.83844L43.8087 4.4042C44.4391 3.59775 45.1325 3.34961 46.2671 3.34961C48.1581 3.34961 48.9775 4.15606 48.9775 5.64489V10.4216H48.2211V9.67715H48.3472ZM46.204 7.00966C45.0064 7.00966 44.376 7.4439 44.376 8.37442C44.376 9.30494 44.9434 9.73919 46.204 9.73919C46.8344 9.73919 47.4647 9.67715 47.969 9.18087C48.2211 8.93274 48.3472 8.49849 48.3472 7.87815V7.00966H46.204Z" fill="#595A5C"/>
<path d="M51.625 0.0620117H52.5705V0.992533H51.625V0.0620117ZM51.688 3.41189H52.4444V10.3598H51.688V3.41189Z" fill="#595A5C"/>
<path d="M59.7564 6.01761C59.7564 4.65285 59.063 3.97047 57.8023 3.97047C56.5416 3.97047 55.7852 4.71488 55.7852 6.01761V10.298H55.0288V3.41216H55.7852V4.21861C56.2895 3.59826 56.9829 3.28809 57.8654 3.28809C58.6218 3.28809 59.2521 3.53622 59.7564 3.97047C60.2607 4.40471 60.5128 5.08709 60.5128 5.89354V10.36H59.7564V6.01761Z" fill="#595A5C"/>
<path d="M67.2574 9.67715C66.627 10.2975 66.1227 10.4836 65.1142 10.4836C64.0426 10.4836 63.4753 10.2975 63.0341 9.86326C62.7189 9.55308 62.5298 9.0568 62.5298 8.49849C62.5298 7.2578 63.4753 6.51338 64.9881 6.51338H67.2574V5.64489C67.2574 4.52827 66.69 3.96996 65.2403 3.96996C64.2317 3.96996 63.7274 4.2181 63.2862 4.83844L62.7189 4.4042C63.3492 3.59775 64.0426 3.34961 65.1772 3.34961C67.0683 3.34961 67.8877 4.15606 67.8877 5.64489V10.4216H67.1313V9.67715H67.2574ZM65.1142 7.00966C63.9165 7.00966 63.2862 7.4439 63.2862 8.37442C63.2862 9.30494 63.8535 9.73919 65.1142 9.73919C65.7445 9.73919 66.3749 9.67715 66.8791 9.18087C67.1313 8.93274 67.2574 8.49849 67.2574 7.87815V7.00966H65.1142Z" fill="#595A5C"/>
<path d="M75.1996 9.80147C74.8214 10.1737 74.191 10.4218 73.4977 10.4218C72.6782 10.4218 72.0479 10.2357 71.4175 9.42926V10.2977H70.6611V0.0620117H71.4175V4.28037C72.0479 3.47392 72.6782 3.28782 73.4977 3.28782C74.2541 3.28782 74.8844 3.53596 75.1996 3.90817C75.893 4.59055 76.0821 5.76921 76.0821 6.88583C76.0821 7.94042 75.893 9.11908 75.1996 9.80147ZM73.3716 3.9702C71.6697 3.9702 71.3545 5.45903 71.3545 6.88583C71.3545 8.31263 71.6066 9.80147 73.3716 9.80147C75.0735 9.80147 75.3887 8.31263 75.3887 6.88583C75.3887 5.45903 75.0735 3.9702 73.3716 3.9702Z" fill="#595A5C"/>
<path d="M78.4146 8.56077V0.0620117H79.171V8.49874C79.171 9.30519 79.4231 9.6774 80.2425 9.6774H80.7468V10.2977H80.1165C78.9188 10.3598 78.4146 9.61536 78.4146 8.56077Z" fill="#595A5C"/>
<path d="M85.096 9.73919C85.9154 9.73919 86.4197 9.49105 87.05 8.93274L87.6173 9.36698C86.9239 10.0494 86.2306 10.4216 85.096 10.4216C83.1419 10.4216 82.0703 9.18088 82.0703 6.88559C82.0703 4.65234 83.1419 3.34961 84.9068 3.34961C86.6718 3.34961 87.7434 4.5903 87.7434 6.76152V7.07169H82.8267C82.7637 8.80867 83.5831 9.73919 85.096 9.73919ZM86.6718 5.14862C86.3566 4.4042 85.6633 3.96996 84.8438 3.96996C84.0244 3.96996 83.331 4.4042 83.0158 5.14862C82.8267 5.58286 82.8267 5.76896 82.7637 6.45135H86.9239C86.9239 5.76896 86.8609 5.52083 86.6718 5.14862Z" fill="#595A5C"/>
<path d="M98.4595 9.49151C97.9552 10.1119 97.2618 10.422 96.3794 10.422C95.623 10.422 94.9926 10.2359 94.4883 9.73965C93.9841 9.30541 93.7319 8.62303 93.7319 7.81658V3.41211H94.4883V7.69251C94.4883 9.05727 95.1817 9.73965 96.4424 9.73965C97.7031 9.73965 98.4595 8.99524 98.4595 7.69251V3.41211H99.2159V10.36H98.4595V9.49151Z" fill="#595A5C"/>
<path d="M104.069 10.4221C102.809 10.4221 101.926 10.1119 101.233 9.42952L101.737 8.93325C102.304 9.49156 103.061 9.80173 104.069 9.80173C105.456 9.80173 106.213 9.30545 106.213 8.37493C106.213 7.63052 105.771 7.32034 104.889 7.19627L103.691 7.0722C102.241 6.94813 101.548 6.32779 101.548 5.2732C101.548 4.09454 102.557 3.28809 104.069 3.28809C105.078 3.28809 105.897 3.53622 106.528 4.0325L106.024 4.52878C105.456 4.15657 104.826 3.97047 104.069 3.97047C102.872 3.97047 102.241 4.46675 102.241 5.33523C102.241 6.07965 102.683 6.38982 103.691 6.51389L104.826 6.63796C106.024 6.76203 106.906 7.0722 106.906 8.43697C106.906 9.61563 105.834 10.4221 104.069 10.4221Z" fill="#595A5C"/>
<path d="M111.76 9.73919C112.579 9.73919 113.083 9.49105 113.714 8.93274L114.281 9.36698C113.588 10.0494 112.894 10.4216 111.76 10.4216C109.805 10.4216 108.734 9.18088 108.734 6.88559C108.734 4.65234 109.805 3.34961 111.57 3.34961C113.335 3.34961 114.407 4.5903 114.407 6.76152V7.07169H109.49C109.49 8.80867 110.247 9.73919 111.76 9.73919ZM113.398 5.14862C113.083 4.4042 112.39 3.96996 111.57 3.96996C110.751 3.96996 110.058 4.4042 109.742 5.14862C109.553 5.58286 109.553 5.76896 109.49 6.45135H113.651C113.588 5.76896 113.588 5.52083 113.398 5.14862Z" fill="#595A5C"/>
<path d="M124.871 9.67715C124.366 10.1734 123.736 10.4216 122.917 10.4216C122.097 10.4216 121.467 10.1734 120.963 9.67715C120.206 8.93274 120.08 7.87815 120.08 6.88559C120.08 5.89303 120.206 4.83844 120.963 4.09403C121.467 3.59775 122.16 3.34961 122.917 3.34961C123.736 3.34961 124.366 3.59775 124.871 4.09403C125.627 4.83844 125.753 5.89303 125.753 6.88559C125.753 7.87815 125.627 8.93274 124.871 9.67715ZM124.429 4.52827C124.051 4.15606 123.547 3.96996 122.98 3.96996C122.412 3.96996 121.908 4.15606 121.53 4.52827C120.963 5.08658 120.9 6.0171 120.9 6.82355C120.9 7.63001 120.963 8.56053 121.53 9.11884C121.908 9.49105 122.412 9.73919 122.98 9.73919C123.547 9.73919 124.051 9.55308 124.429 9.11884C124.997 8.56053 125.06 7.63001 125.06 6.82355C125.06 6.07914 124.997 5.14862 124.429 4.52827Z" fill="#595A5C"/>
<path d="M128.905 10.3598H128.149V3.97018H127.203V3.41186H128.149V1.92303C128.149 0.86844 128.716 0.124023 129.851 0.124023H130.481V0.744371H129.977C129.22 0.744371 128.905 1.17861 128.905 1.92303V3.41186H130.481V3.97018H128.905V10.3598Z" fill="#595A5C"/>
<path d="M15.5693 14.6401H21.9358V15.3225H16.3888V19.4168H21.1163V20.0992H16.3888V24.1935H21.9358V24.8759H15.5693V14.6401Z" fill="#595A5C"/>
<path d="M28.3653 24.1932C27.7349 24.8136 27.2306 24.9997 26.2221 24.9997C25.1505 24.9997 24.5832 24.8136 24.142 24.3793C23.8268 24.0692 23.6377 23.5729 23.6377 23.0146C23.6377 21.7739 24.5832 21.0295 26.096 21.0295H28.3653V20.223C28.3653 19.1064 27.798 18.5481 26.3482 18.5481C25.3396 18.5481 24.8353 18.7962 24.3941 19.4166L23.8268 18.9823C24.4571 18.1759 25.1505 17.9277 26.2851 17.9277C28.1762 17.9277 28.9956 18.7342 28.9956 20.223V24.9997H28.3653V24.1932ZM26.1591 21.5878C24.9614 21.5878 24.3311 22.022 24.3311 23.0146C24.3311 23.9451 24.8984 24.3793 26.1591 24.3793C26.7894 24.3793 27.4197 24.3173 27.924 23.821C28.1762 23.5729 28.3022 23.1387 28.3022 22.5183V21.6498H26.1591V21.5878Z" fill="#595A5C"/>
<path d="M34.3535 18.5481C33.1558 18.5481 32.4625 19.5406 32.4625 20.6573V24.9377H31.7061V17.9898H32.4625V18.9203C32.9037 18.2999 33.7231 17.9277 34.5426 17.9277C35.236 17.9277 35.7402 18.1138 36.2445 18.6101L35.6772 19.1684C35.299 18.6722 34.9208 18.5481 34.3535 18.5481Z" fill="#595A5C"/>
<path d="M38.5139 23.0769V18.4864H37.5684V17.9901H38.5139V15.7568H39.2703V17.9901H40.8461V18.5484H39.2703V23.139C39.2703 23.8834 39.5855 24.3176 40.3419 24.3176H40.8461V24.938H40.2158C39.0812 24.8759 38.5139 24.1315 38.5139 23.0769Z" fill="#595A5C"/>
<path d="M47.5908 20.5955C47.5908 19.2307 46.8975 18.5483 45.6368 18.5483C44.3761 18.5483 43.6197 19.2927 43.6197 20.5955V24.8759H42.8633V14.6401H43.6197V18.7965C44.124 18.1761 44.8173 17.8659 45.6998 17.8659C47.3387 17.8659 48.2842 18.8585 48.2842 20.4714V24.8759H47.5278V20.5955H47.5908Z" fill="#595A5C"/>
<path d="M50.9946 14.6401H52.0032V15.6327L50.9946 16.6873V14.6401Z" fill="#595A5C"/>
<path d="M56.2267 25.0002C55.029 25.0002 54.0835 24.69 53.3901 24.0077L53.8944 23.5114C54.4617 24.0697 55.2181 24.3799 56.2267 24.3799C57.6134 24.3799 58.3698 23.8836 58.3698 22.9531C58.3698 22.2086 57.9286 21.8985 57.0461 21.7744L55.8485 21.6503C54.3987 21.5263 53.7053 20.9059 53.7053 19.8513C53.7053 18.6727 54.7139 17.8662 56.2267 17.8662C57.2352 17.8662 58.0547 18.1144 58.685 18.6106L58.1807 19.1069C57.6134 18.7347 56.9831 18.5486 56.2267 18.5486C55.029 18.5486 54.3987 19.0449 54.3987 19.9134C54.3987 20.6578 54.8399 20.9679 55.8485 21.092L56.9831 21.2161C58.1807 21.3402 59.0632 21.6503 59.0632 23.0151C59.0632 24.1938 57.9286 25.0002 56.2267 25.0002Z" fill="#595A5C"/>
<path d="M69.7158 20.5957C69.7158 19.231 69.0225 18.5486 67.7618 18.5486C66.5011 18.5486 65.7447 19.293 65.7447 20.5957V24.8761H64.9883V17.9903H65.7447V18.7967C66.249 18.1764 66.9423 17.8662 67.8248 17.8662C68.5812 17.8662 69.2116 18.0523 69.7158 18.5486C70.2201 18.9828 70.4723 19.6652 70.4723 20.4717V24.8761H69.7158V20.5957Z" fill="#595A5C"/>
<path d="M77.2168 24.1932C76.5865 24.8136 76.0822 24.9997 75.0737 24.9997C74.0021 24.9997 73.4348 24.8136 72.9935 24.3793C72.6784 24.0692 72.4893 23.5729 72.4893 23.0146C72.4893 21.7739 73.4348 21.0295 74.9476 21.0295H77.2168V20.223C77.2168 19.1064 76.6495 18.5481 75.1997 18.5481C74.1912 18.5481 73.6869 18.7962 73.2457 19.4166L72.6784 18.9823C73.3087 18.1759 74.0021 17.9277 75.1367 17.9277C77.0277 17.9277 77.8472 18.7342 77.8472 20.223V24.9997H77.0908V24.1932H77.2168ZM75.0106 21.5878C73.813 21.5878 73.1826 22.022 73.1826 23.0146C73.1826 23.9451 73.7499 24.3793 75.0106 24.3793C75.641 24.3793 76.2713 24.3173 76.7756 23.821C77.0277 23.5729 77.1538 23.1387 77.1538 22.5183V21.6498H75.0106V21.5878Z" fill="#595A5C"/>
<path d="M80.6838 23.0769V18.4864H79.7383V17.9901H80.6838V15.7568H81.4402V17.9901H83.0161V18.5484H81.4402V23.139C81.4402 23.8834 81.7554 24.3176 82.5118 24.3176H83.0161V24.938H82.3857C81.2511 24.8759 80.6838 24.1315 80.6838 23.0769Z" fill="#595A5C"/>
<path d="M89.6978 24.0696C89.1935 24.69 88.5001 25.0002 87.6176 25.0002C86.8612 25.0002 86.2309 24.752 85.7266 24.3178C85.2223 23.8835 84.9702 23.2012 84.9702 22.3947V17.9902H85.7266V22.2706C85.7266 23.6354 86.42 24.3178 87.6807 24.3178C88.9414 24.3178 89.6978 23.5734 89.6978 22.2706V17.9902H90.4542V24.9381H89.6978V24.0696Z" fill="#595A5C"/>
<path d="M95.749 18.5481C94.5513 18.5481 93.858 19.5406 93.858 20.6573V24.9377H93.1016V17.9898H93.858V18.9203C94.2992 18.2999 95.1187 17.9277 95.9381 17.9277C96.6315 17.9277 97.1358 18.1138 97.64 18.6101L97.0727 19.1684C96.6315 18.6722 96.3163 18.5481 95.749 18.5481Z" fill="#595A5C"/>
<path d="M103.565 24.1932C102.935 24.8136 102.43 24.9997 101.422 24.9997C100.35 24.9997 99.7829 24.8136 99.3417 24.3793C99.0265 24.0692 98.8374 23.5729 98.8374 23.0146C98.8374 21.7739 99.7829 21.0295 101.296 21.0295H103.565V20.223C103.565 19.1064 102.998 18.5481 101.548 18.5481C100.539 18.5481 100.035 18.7962 99.5938 19.4166L99.0265 18.9823C99.6568 18.1759 100.35 17.9277 101.485 17.9277C103.376 17.9277 104.195 18.7342 104.195 20.223V24.9997H103.439V24.1932H103.565ZM101.359 21.5878C100.161 21.5878 99.5308 22.022 99.5308 23.0146C99.5308 23.9451 100.098 24.3793 101.359 24.3793C101.989 24.3793 102.619 24.3173 103.124 23.821C103.376 23.5729 103.502 23.1387 103.502 22.5183V21.6498H101.359V21.5878Z" fill="#595A5C"/>
<path d="M106.843 23.0769V14.6401H107.599V23.0769C107.599 23.8833 107.851 24.2555 108.671 24.2555H109.175V24.8759H108.545C107.41 24.8759 106.843 24.1935 106.843 23.0769Z" fill="#595A5C"/>
<path d="M117.433 18.5481C116.235 18.5481 115.542 19.5406 115.542 20.6573V24.9377H114.785V17.9898H115.542V18.9203C115.983 18.2999 116.802 17.9277 117.622 17.9277C118.315 17.9277 118.819 18.1138 119.324 18.6101L118.756 19.1684C118.378 18.6722 118.063 18.5481 117.433 18.5481Z" fill="#595A5C"/>
<path d="M123.484 24.3173C124.304 24.3173 124.808 24.0692 125.438 23.5109L126.005 23.9451C125.312 24.6275 124.619 24.9997 123.484 24.9997C121.53 24.9997 120.458 23.759 120.458 21.4637C120.458 19.2305 121.53 17.9277 123.295 17.9277C125.06 17.9277 126.132 19.1684 126.132 21.3396V21.6498H121.215C121.152 23.3868 121.971 24.3173 123.484 24.3173ZM125.06 19.6647C124.745 18.9203 124.051 18.486 123.232 18.486C122.413 18.486 121.719 18.9203 121.404 19.6647C121.215 20.099 121.215 20.2851 121.152 20.9674H125.312C125.312 20.3471 125.249 20.099 125.06 19.6647Z" fill="#595A5C"/>
<path d="M130.67 25.0002C129.472 25.0002 128.527 24.69 127.833 24.0077L128.338 23.5114C128.905 24.0697 129.661 24.3799 130.67 24.3799C132.057 24.3799 132.813 23.8836 132.813 22.9531C132.813 22.2086 132.435 21.8985 131.489 21.7744L130.292 21.6503C128.842 21.5263 128.149 20.9059 128.149 19.8513C128.149 18.6727 129.157 17.8662 130.67 17.8662C131.679 17.8662 132.498 18.1144 133.128 18.6106L132.624 19.1069C132.057 18.7347 131.426 18.5486 130.67 18.5486C129.472 18.5486 128.842 19.0449 128.842 19.9134C128.842 20.6578 129.283 20.9679 130.292 21.092L131.426 21.2161C132.624 21.3402 133.507 21.6503 133.507 23.0151C133.507 24.1938 132.435 25.0002 130.67 25.0002Z" fill="#595A5C"/>
<path d="M140.125 24.2553C139.621 24.7516 138.99 24.9997 138.171 24.9997C137.352 24.9997 136.721 24.7516 136.217 24.2553C135.461 23.5109 135.334 22.4563 135.334 21.4637C135.334 20.4712 135.461 19.4166 136.217 18.6722C136.721 18.1759 137.415 17.9277 138.171 17.9277C138.99 17.9277 139.621 18.1759 140.125 18.6722C140.881 19.4166 141.008 20.4712 141.008 21.4637C141.008 22.4563 140.881 23.5109 140.125 24.2553ZM139.684 19.1064C139.306 18.7342 138.801 18.486 138.234 18.486C137.667 18.486 137.162 18.6722 136.784 19.1064C136.217 19.6647 136.154 20.5952 136.154 21.4017C136.154 22.2081 136.217 23.1387 136.784 23.697C137.162 24.0692 137.667 24.3173 138.234 24.3173C138.801 24.3173 139.306 24.1312 139.684 23.697C140.251 23.1387 140.314 22.2081 140.314 21.4017C140.314 20.6573 140.251 19.6647 139.684 19.1064Z" fill="#595A5C"/>
<path d="M147.941 24.0696C147.437 24.69 146.744 25.0002 145.861 25.0002C145.105 25.0002 144.475 24.752 143.97 24.3178C143.466 23.8835 143.214 23.2012 143.214 22.3947V17.9902H143.97V22.2706C143.97 23.6354 144.664 24.3178 145.924 24.3178C147.185 24.3178 147.941 23.5734 147.941 22.2706V17.9902H148.698V24.9381H147.941V24.0696Z" fill="#595A5C"/>
<path d="M153.93 18.5481C152.732 18.5481 152.039 19.5406 152.039 20.6573V24.9377H151.282V17.9898H152.039V18.9203C152.417 18.2999 153.236 17.9277 154.119 17.9277C154.812 17.9277 155.316 18.1138 155.821 18.6101L155.253 19.1684C154.875 18.6722 154.56 18.5481 153.93 18.5481Z" fill="#595A5C"/>
<path d="M159.981 24.9997C158.027 24.9997 156.892 23.6349 156.892 21.4637C156.892 19.2305 158.09 17.9277 159.981 17.9277C160.926 17.9277 161.557 18.1759 162.313 18.9823L161.809 19.4166C161.178 18.7342 160.737 18.5481 159.981 18.5481C159.161 18.5481 158.531 18.8583 158.09 19.4786C157.712 19.9749 157.585 20.5332 157.585 21.4637C157.585 22.3942 157.712 22.9525 158.09 23.4488C158.531 24.0692 159.161 24.3793 159.981 24.3793C160.737 24.3793 161.178 24.1312 161.809 23.5109L162.313 23.9451C161.557 24.7516 160.926 24.9997 159.981 24.9997Z" fill="#595A5C"/>
<path d="M166.978 24.3173C167.797 24.3173 168.302 24.0692 168.932 23.5109L169.499 23.9451C168.806 24.6275 168.112 24.9997 166.978 24.9997C165.024 24.9997 163.952 23.759 163.952 21.4637C163.952 19.2305 165.024 17.9277 166.789 17.9277C168.554 17.9277 169.625 19.1684 169.625 21.3396V21.6498H164.709C164.646 23.3868 165.465 24.3173 166.978 24.3173ZM168.554 19.6647C168.238 18.9203 167.545 18.486 166.726 18.486C165.906 18.486 165.213 18.9203 164.898 19.6647C164.709 20.099 164.709 20.2851 164.646 20.9674H168.806C168.806 20.3471 168.743 20.099 168.554 19.6647Z" fill="#595A5C"/>
<path d="M174.164 25.0002C172.966 25.0002 172.021 24.69 171.327 24.0077L171.831 23.5114C172.399 24.0697 173.155 24.3799 174.164 24.3799C175.55 24.3799 176.307 23.8836 176.307 22.9531C176.307 22.2086 175.929 21.8985 174.983 21.7744L173.785 21.6503C172.336 21.5263 171.642 20.9059 171.642 19.8513C171.642 18.6727 172.651 17.8662 174.164 17.8662C175.172 17.8662 175.992 18.1144 176.622 18.6106L176.118 19.1069C175.55 18.7347 174.92 18.5486 174.164 18.5486C172.966 18.5486 172.336 19.0449 172.336 19.9134C172.336 20.6578 172.777 20.9679 173.785 21.092L174.92 21.2161C176.118 21.3402 177 21.6503 177 23.0151C177 24.1938 175.929 25.0002 174.164 25.0002Z" fill="#595A5C"/>
<path d="M3.84509 0H0V6.20347H3.84509V0Z" fill="url(#paint0_radial)"/>
<path d="M3.84509 6.45166H0V12.6551H3.84509V6.45166Z" fill="url(#paint1_linear)"/>
<path d="M3.84509 12.4692H0V18.6727H3.84509V12.4692Z" fill="#75AC42"/>
<path d="M3.84509 16.8115H0V18.6726H3.84509V16.8115Z" fill="#0D91CC"/>
<path d="M3.84509 18.6729H0V24.8763H3.84509V18.6729Z" fill="#595A5C"/>
<path d="M3.84509 23.8833H0V24.8759H3.84509V23.8833Z" fill="#DA3F29"/>
<defs>
<radialGradient id="paint0_radial" cx="0" cy="0" r="1" gradientUnits="userSpaceOnUse" gradientTransform="translate(1.93211 6.11261) scale(13.9806 4.42825)">
<stop stop-color="#E5E6E7"/>
<stop offset="0.2" stop-color="#E5E6E7"/>
<stop offset="0.3558" stop-color="white"/>
<stop offset="0.3674" stop-color="white"/>
<stop offset="0.3937" stop-color="#E1EDF5"/>
<stop offset="0.4907" stop-color="#81C1DF"/>
<stop offset="0.5603" stop-color="#53A1CF"/>
<stop offset="0.62" stop-color="#0D87C1"/>
<stop offset="0.82" stop-color="#283E4B"/>
<stop offset="0.9667" stop-color="#010101"/>
<stop offset="1" stop-color="#010101"/>
</radialGradient>
<linearGradient id="paint1_linear" x1="1.91478" y1="12.6798" x2="1.91478" y2="6.45272" gradientUnits="userSpaceOnUse">
<stop stop-color="#B3B4B5"/>
<stop offset="0.2597" stop-color="#BABCBC"/>
<stop offset="0.6817" stop-color="#D0D1D1"/>
<stop offset="1" stop-color="#E5E6E7"/>
</linearGradient>
</defs>
</svg>
