<svg width="156" height="528" viewBox="0 0 156 528" fill="none" xmlns="http://www.w3.org/2000/svg">
<path d="M11.5 1.5L17.6847 7.68466" stroke="#009CD9" stroke-width="2" stroke-linecap="square"/>
<path d="M37.5 27.5L43.6847 33.6847" stroke="#009CD9" stroke-width="2" stroke-linecap="square"/>
<path d="M43.5 1.5L37.3153 7.68466" stroke="#009CD9" stroke-width="2" stroke-linecap="square"/>
<path d="M17.5 27.5L11.3153 33.6847" stroke="#009CD9" stroke-width="2" stroke-linecap="square"/>
<path d="M66.5 1.5L72.6847 7.68466" stroke="#009CD9" stroke-width="2" stroke-linecap="square"/>
<path d="M92.5 27.5L98.6847 33.6847" stroke="#009CD9" stroke-width="2" stroke-linecap="square"/>
<path d="M98.5 1.5L92.3153 7.68466" stroke="#009CD9" stroke-width="2" stroke-linecap="square"/>
<path d="M72.5 27.5L66.3153 33.6847" stroke="#009CD9" stroke-width="2" stroke-linecap="square"/>
<path d="M121.5 1.5L127.685 7.68466" stroke="#009CD9" stroke-width="2" stroke-linecap="square"/>
<path d="M147.5 27.5L153.685 33.6847" stroke="#009CD9" stroke-width="2" stroke-linecap="square"/>
<path d="M153.5 1.5L147.315 7.68466" stroke="#009CD9" stroke-width="2" stroke-linecap="square"/>
<path d="M127.5 27.5L121.315 33.6847" stroke="#009CD9" stroke-width="2" stroke-linecap="square"/>
<path d="M11.5 56.5L17.6847 62.6847" stroke="#009CD9" stroke-width="2" stroke-linecap="square"/>
<path d="M37.5 82.5L43.6847 88.6847" stroke="#009CD9" stroke-width="2" stroke-linecap="square"/>
<path d="M43.5 56.5L37.3153 62.6847" stroke="#009CD9" stroke-width="2" stroke-linecap="square"/>
<path d="M17.5 82.5L11.3153 88.6847" stroke="#009CD9" stroke-width="2" stroke-linecap="square"/>
<path d="M66.5 56.5L72.6847 62.6847" stroke="#009CD9" stroke-width="2" stroke-linecap="square"/>
<path d="M92.5 82.5L98.6847 88.6847" stroke="#009CD9" stroke-width="2" stroke-linecap="square"/>
<path d="M98.5 56.5L92.3153 62.6847" stroke="#009CD9" stroke-width="2" stroke-linecap="square"/>
<path d="M72.5 82.5L66.3153 88.6847" stroke="#009CD9" stroke-width="2" stroke-linecap="square"/>
<path d="M121.5 56.5L127.685 62.6847" stroke="#009CD9" stroke-width="2" stroke-linecap="square"/>
<path d="M147.5 82.5L153.685 88.6847" stroke="#009CD9" stroke-width="2" stroke-linecap="square"/>
<path d="M153.5 56.5L147.315 62.6847" stroke="#009CD9" stroke-width="2" stroke-linecap="square"/>
<path d="M127.5 82.5L121.315 88.6847" stroke="#009CD9" stroke-width="2" stroke-linecap="square"/>
<path d="M11.5 111.5L17.6847 117.685" stroke="#009CD9" stroke-width="2" stroke-linecap="square"/>
<path d="M37.5 137.5L43.6847 143.685" stroke="#009CD9" stroke-width="2" stroke-linecap="square"/>
<path d="M43.5 111.5L37.3153 117.685" stroke="#009CD9" stroke-width="2" stroke-linecap="square"/>
<path d="M17.5 137.5L11.3153 143.685" stroke="#009CD9" stroke-width="2" stroke-linecap="square"/>
<path d="M66.5 111.5L72.6847 117.685" stroke="#009CD9" stroke-width="2" stroke-linecap="square"/>
<path d="M92.5 137.5L98.6847 143.685" stroke="#009CD9" stroke-width="2" stroke-linecap="square"/>
<path d="M98.5 111.5L92.3153 117.685" stroke="#009CD9" stroke-width="2" stroke-linecap="square"/>
<path d="M72.5 137.5L66.3153 143.685" stroke="#009CD9" stroke-width="2" stroke-linecap="square"/>
<path d="M121.5 111.5L127.685 117.685" stroke="#009CD9" stroke-width="2" stroke-linecap="square"/>
<path d="M147.5 137.5L153.685 143.685" stroke="#009CD9" stroke-width="2" stroke-linecap="square"/>
<path d="M153.5 111.5L147.315 117.685" stroke="#009CD9" stroke-width="2" stroke-linecap="square"/>
<path d="M127.5 137.5L121.315 143.685" stroke="#009CD9" stroke-width="2" stroke-linecap="square"/>
<path d="M11.5 166.5L17.6847 172.685" stroke="#009CD9" stroke-width="2" stroke-linecap="square"/>
<path d="M37.5 192.5L43.6847 198.685" stroke="#009CD9" stroke-width="2" stroke-linecap="square"/>
<path d="M43.5 166.5L37.3153 172.685" stroke="#009CD9" stroke-width="2" stroke-linecap="square"/>
<path d="M17.5 192.5L11.3153 198.685" stroke="#009CD9" stroke-width="2" stroke-linecap="square"/>
<path d="M66.5 166.5L72.6847 172.685" stroke="#009CD9" stroke-width="2" stroke-linecap="square"/>
<path d="M92.5 192.5L98.6847 198.685" stroke="#009CD9" stroke-width="2" stroke-linecap="square"/>
<path d="M98.5 166.5L92.3153 172.685" stroke="#009CD9" stroke-width="2" stroke-linecap="square"/>
<path d="M72.5 192.5L66.3153 198.685" stroke="#009CD9" stroke-width="2" stroke-linecap="square"/>
<path d="M121.5 166.5L127.685 172.685" stroke="#009CD9" stroke-width="2" stroke-linecap="square"/>
<path d="M147.5 192.5L153.685 198.685" stroke="#009CD9" stroke-width="2" stroke-linecap="square"/>
<path d="M153.5 166.5L147.315 172.685" stroke="#009CD9" stroke-width="2" stroke-linecap="square"/>
<path d="M127.5 192.5L121.315 198.685" stroke="#009CD9" stroke-width="2" stroke-linecap="square"/>
<path d="M11.5 221.5L17.6847 227.685" stroke="#009CD9" stroke-width="2" stroke-linecap="square"/>
<path d="M37.5 247.5L43.6847 253.685" stroke="#009CD9" stroke-width="2" stroke-linecap="square"/>
<path d="M43.5 221.5L37.3153 227.685" stroke="#009CD9" stroke-width="2" stroke-linecap="square"/>
<path d="M17.5 247.5L11.3153 253.685" stroke="#009CD9" stroke-width="2" stroke-linecap="square"/>
<path d="M66.5 221.5L72.6847 227.685" stroke="#009CD9" stroke-width="2" stroke-linecap="square"/>
<path d="M92.5 247.5L98.6847 253.685" stroke="#009CD9" stroke-width="2" stroke-linecap="square"/>
<path d="M98.5 221.5L92.3153 227.685" stroke="#009CD9" stroke-width="2" stroke-linecap="square"/>
<path d="M72.5 247.5L66.3153 253.685" stroke="#009CD9" stroke-width="2" stroke-linecap="square"/>
<path d="M121.5 221.5L127.685 227.685" stroke="#009CD9" stroke-width="2" stroke-linecap="square"/>
<path d="M147.5 247.5L153.685 253.685" stroke="#009CD9" stroke-width="2" stroke-linecap="square"/>
<path d="M153.5 221.5L147.315 227.685" stroke="#009CD9" stroke-width="2" stroke-linecap="square"/>
<path d="M127.5 247.5L121.315 253.685" stroke="#009CD9" stroke-width="2" stroke-linecap="square"/>
<path d="M11.5 273.5L17.6847 279.685" stroke="#009CD9" stroke-width="2" stroke-linecap="square"/>
<path d="M37.5 299.5L43.6847 305.685" stroke="#009CD9" stroke-width="2" stroke-linecap="square"/>
<path d="M43.5 273.5L37.3153 279.685" stroke="#009CD9" stroke-width="2" stroke-linecap="square"/>
<path d="M17.5 299.5L11.3153 305.685" stroke="#009CD9" stroke-width="2" stroke-linecap="square"/>
<path d="M66.5 273.5L72.6847 279.685" stroke="#009CD9" stroke-width="2" stroke-linecap="square"/>
<path d="M92.5 299.5L98.6847 305.685" stroke="#009CD9" stroke-width="2" stroke-linecap="square"/>
<path d="M98.5 273.5L92.3153 279.685" stroke="#009CD9" stroke-width="2" stroke-linecap="square"/>
<path d="M72.5 299.5L66.3153 305.685" stroke="#009CD9" stroke-width="2" stroke-linecap="square"/>
<path d="M121.5 273.5L127.685 279.685" stroke="#009CD9" stroke-width="2" stroke-linecap="square"/>
<path d="M147.5 299.5L153.685 305.685" stroke="#009CD9" stroke-width="2" stroke-linecap="square"/>
<path d="M153.5 273.5L147.315 279.685" stroke="#009CD9" stroke-width="2" stroke-linecap="square"/>
<path d="M127.5 299.5L121.315 305.685" stroke="#009CD9" stroke-width="2" stroke-linecap="square"/>
<path d="M11.5 328.5L17.6847 334.685" stroke="#009CD9" stroke-width="2" stroke-linecap="square"/>
<path d="M37.5 354.5L43.6847 360.685" stroke="#009CD9" stroke-width="2" stroke-linecap="square"/>
<path d="M43.5 328.5L37.3153 334.685" stroke="#009CD9" stroke-width="2" stroke-linecap="square"/>
<path d="M17.5 354.5L11.3153 360.685" stroke="#009CD9" stroke-width="2" stroke-linecap="square"/>
<path d="M66.5 328.5L72.6847 334.685" stroke="#009CD9" stroke-width="2" stroke-linecap="square"/>
<path d="M92.5 354.5L98.6847 360.685" stroke="#009CD9" stroke-width="2" stroke-linecap="square"/>
<path d="M98.5 328.5L92.3153 334.685" stroke="#009CD9" stroke-width="2" stroke-linecap="square"/>
<path d="M72.5 354.5L66.3153 360.685" stroke="#009CD9" stroke-width="2" stroke-linecap="square"/>
<path d="M121.5 328.5L127.685 334.685" stroke="#009CD9" stroke-width="2" stroke-linecap="square"/>
<path d="M147.5 354.5L153.685 360.685" stroke="#009CD9" stroke-width="2" stroke-linecap="square"/>
<path d="M153.5 328.5L147.315 334.685" stroke="#009CD9" stroke-width="2" stroke-linecap="square"/>
<path d="M127.5 354.5L121.315 360.685" stroke="#009CD9" stroke-width="2" stroke-linecap="square"/>
<path d="M11.5 383.5L17.6847 389.685" stroke="#009CD9" stroke-width="2" stroke-linecap="square"/>
<path d="M37.5 409.5L43.6847 415.685" stroke="#009CD9" stroke-width="2" stroke-linecap="square"/>
<path d="M43.5 383.5L37.3153 389.685" stroke="#009CD9" stroke-width="2" stroke-linecap="square"/>
<path d="M17.5 409.5L11.3153 415.685" stroke="#009CD9" stroke-width="2" stroke-linecap="square"/>
<path d="M66.5 383.5L72.6847 389.685" stroke="#009CD9" stroke-width="2" stroke-linecap="square"/>
<path d="M92.5 409.5L98.6847 415.685" stroke="#009CD9" stroke-width="2" stroke-linecap="square"/>
<path d="M98.5 383.5L92.3153 389.685" stroke="#009CD9" stroke-width="2" stroke-linecap="square"/>
<path d="M72.5 409.5L66.3153 415.685" stroke="#009CD9" stroke-width="2" stroke-linecap="square"/>
<path d="M121.5 383.5L127.685 389.685" stroke="#009CD9" stroke-width="2" stroke-linecap="square"/>
<path d="M147.5 409.5L153.685 415.685" stroke="#009CD9" stroke-width="2" stroke-linecap="square"/>
<path d="M153.5 383.5L147.315 389.685" stroke="#009CD9" stroke-width="2" stroke-linecap="square"/>
<path d="M127.5 409.5L121.315 415.685" stroke="#009CD9" stroke-width="2" stroke-linecap="square"/>
<path d="M11.5 438.5L17.6847 444.685" stroke="#009CD9" stroke-width="2" stroke-linecap="square"/>
<path d="M37.5 464.5L43.6847 470.685" stroke="#009CD9" stroke-width="2" stroke-linecap="square"/>
<path d="M43.5 438.5L37.3153 444.685" stroke="#009CD9" stroke-width="2" stroke-linecap="square"/>
<path d="M17.5 464.5L11.3153 470.685" stroke="#009CD9" stroke-width="2" stroke-linecap="square"/>
<path d="M66.5 438.5L72.6847 444.685" stroke="#009CD9" stroke-width="2" stroke-linecap="square"/>
<path d="M92.5 464.5L98.6847 470.685" stroke="#009CD9" stroke-width="2" stroke-linecap="square"/>
<path d="M98.5 438.5L92.3153 444.685" stroke="#009CD9" stroke-width="2" stroke-linecap="square"/>
<path d="M72.5 464.5L66.3153 470.685" stroke="#009CD9" stroke-width="2" stroke-linecap="square"/>
<path d="M121.5 438.5L127.685 444.685" stroke="#009CD9" stroke-width="2" stroke-linecap="square"/>
<path d="M147.5 464.5L153.685 470.685" stroke="#009CD9" stroke-width="2" stroke-linecap="square"/>
<path d="M153.5 438.5L147.315 444.685" stroke="#009CD9" stroke-width="2" stroke-linecap="square"/>
<path d="M127.5 464.5L121.315 470.685" stroke="#009CD9" stroke-width="2" stroke-linecap="square"/>
<path d="M11.5 493.5L17.6847 499.685" stroke="#009CD9" stroke-width="2" stroke-linecap="square"/>
<path d="M37.5 519.5L43.6847 525.685" stroke="#009CD9" stroke-width="2" stroke-linecap="square"/>
<path d="M43.5 493.5L37.3153 499.685" stroke="#009CD9" stroke-width="2" stroke-linecap="square"/>
<path d="M17.5 519.5L11.3153 525.685" stroke="#009CD9" stroke-width="2" stroke-linecap="square"/>
<path d="M66.5 493.5L72.6847 499.685" stroke="#009CD9" stroke-width="2" stroke-linecap="square"/>
<path d="M92.5 519.5L98.6847 525.685" stroke="#009CD9" stroke-width="2" stroke-linecap="square"/>
<path d="M98.5 493.5L92.3153 499.685" stroke="#009CD9" stroke-width="2" stroke-linecap="square"/>
<path d="M72.5 519.5L66.3153 525.685" stroke="#009CD9" stroke-width="2" stroke-linecap="square"/>
<path d="M121.5 493.5L127.685 499.685" stroke="#009CD9" stroke-width="2" stroke-linecap="square"/>
<path d="M147.5 519.5L153.685 525.685" stroke="#009CD9" stroke-width="2" stroke-linecap="square"/>
<path d="M153.5 493.5L147.315 499.685" stroke="#009CD9" stroke-width="2" stroke-linecap="square"/>
<path d="M127.5 519.5L121.315 525.685" stroke="#009CD9" stroke-width="2" stroke-linecap="square"/>
</svg>
